# xmcd
#
# Track frame offsets:
#	150
#	15671
#	30820
#	45492
#	61574
#	75856
#	91399
#	106630
#	121974
#	137337
#	154345
#	169309
#	187232
#	202721
#	217586
#	231504
#	247500
#	265280
#
# Disc length: 3774 seconds
# Revision: 0
# Processed by: cddbd v1.5.2PL0 Copyright (c) Steve Scherf et al.
# Submitted via: dBpowerAMP V12.0
#
DISCID=cd0ebc12
DTITLE=Various Artist - Country Radio March 2007
DYEAR=2007
DGENRE=Country
TTITLE0=Rascal Flatts - Stand
TTITLE1=Toby Keith - High Maintenance Woman
TTITLE2=Montgomery Gentry - Lucky Man
TTITLE3=Doc Walker - Trying To Get Back To You
TTITLE4=Jason Aldean - Johnny Cash
TTITLE5=Cole Deggs and The Lonesome - I Got More
TTITLE6=Taylor Swift - Teardrops On My Guitar
TTITLE7=Laura Bryna - I Don't Have A Thing To Wear
TTITLE8=Jerrod Niemann - I Love Women My Momma Can't Stand
TTITLE9=Luke Bryan - All My Friends Say
TTITLE10=Brad Johner - Your Love Is My Luck
TTITLE11=Little Big Town - A Little More You
TTITLE12=Corb Lund - The Truth Comes Out
TTITLE13=Jason Blaine - What I Can't Forget
TTITLE14=Codie Prevost - Shinin River
TTITLE15=Darryl Worley - Living In The Here and Now
TTITLE16=Kellie Pickler - I Wonder
TTITLE17=Little Texas - Missing Years
EXTD=
EXTT0=
EXTT1=
EXTT2=
EXTT3=
EXTT4=
EXTT5=
EXTT6=
EXTT7=
EXTT8=
EXTT9=
EXTT10=
EXTT11=
EXTT12=
EXTT13=
EXTT14=
EXTT15=
EXTT16=
EXTT17=
PLAYORDER=
